STARTFONT 2.1
COMMENT  
COMMENT  Copyright (c) 1984, 1987 Adobe Systems Incorporated. All Rights Reserved. Copyright (c) 1988, 1991 Digital Equipment Corporation. All Rights Reserved.
COMMENT  
COMMENT  WARNING:  This bdf file was generated from a font server using
COMMENT  fstobdf.  The resulting font is subject to the same copyright,
COMMENT  license, and trademark restrictions as the original font.  The
COMMENT  authors and distributors of fstobdf disclaim all liability for
COMMENT  misuse of the program or its output.
COMMENT  
FONT -Adobe-Helvetica-Medium-R-Normal--10-100-75-75-P-56-ISO8859-1
SIZE 10 75 75
FONTBOUNDINGBOX 11 13 -1 -2
STARTPROPERTIES 32
FOUNDRY "Adobe"
FAMILY_NAME "Helvetica"
WEIGHT_NAME "Medium"
SLANT "R"
SETWIDTH_NAME "Normal"
ADD_STYLE_NAME ""
PIXEL_SIZE 10
POINT_SIZE 100
RESOLUTION_X 75
RESOLUTION_Y 75
SPACING "P"
AVERAGE_WIDTH 56
CHARSET_REGISTRY "ISO8859"
CHARSET_ENCODING "1"
CAP_HEIGHT 8
X_HEIGHT 6
FACE_NAME "Helvetica"
COPYRIGHT "Copyright (c) 1984, 1987 Adobe Systems Incorporated. All Rights Reserved. Copyright (c) 1988, 1991 Digital Equipment Corporation. All Rights Reserved."
NOTICE "Helvetica is a trademark of Linotype-Hell AG and/or its subsidiaries.  "
_DEC_DEVICE_FONTNAMES "PS=Helvetica"
_DEC_PRODUCTINFO "DECwindows Fonts V2.2, 07-Nov-1991"
RELATIVE_SETWIDTH 50
RELATIVE_WEIGHT 50
CHARSET_COLLECTIONS "ASCII ISO8859-1 ADOBE-STANDARD"
FULL_NAME "Helvetica"
FONT "-Adobe-Helvetica-Medium-R-Normal--10-100-75-75-P-56-ISO8859-1"
WEIGHT 10
RESOLUTION 103
QUAD_WIDTH 6
DEFAULT_CHAR 32
FONT_ASCENT 10
FONT_DESCENT 2
ENDPROPERTIES
CHARS 191
STARTCHAR space
ENCODING 32
SWIDTH 288 0
DWIDTH 3 0
BBX 1 1 0 0
BITMAP
00
ENDCHAR
STARTCHAR exclam
ENCODING 33
SWIDTH 288 0
DWIDTH 3 0
BBX 1 8 1 0
BITMAP
80
80
80
80
80
80
00
80
ENDCHAR
STARTCHAR quotedbl
ENCODING 34
SWIDTH 384 0
DWIDTH 4 0
BBX 3 2 1 6
BITMAP
a0
a0
ENDCHAR
STARTCHAR numbersign
ENCODING 35
SWIDTH 576 0
DWIDTH 6 0
BBX 6 7 0 0
BITMAP
28
28
7c
28
f8
50
50
ENDCHAR
STARTCHAR dollar
ENCODING 36
SWIDTH 576 0
DWIDTH 6 0
BBX 5 9 0 -1
BITMAP
20
70
a8
a0
70
28
a8
70
20
ENDCHAR
STARTCHAR percent
ENCODING 37
SWIDTH 864 0
DWIDTH 9 0
BBX 8 8 0 0
BITMAP
64
94
68
08
10
16
29
26
ENDCHAR
STARTCHAR ampersand
ENCODING 38
SWIDTH 768 0
DWIDTH 8 0
BBX 6 8 1 0
BITMAP
20
50
50
60
a4
98
98
64
ENDCHAR
STARTCHAR apostrophe
ENCODING 39
SWIDTH 288 0
DWIDTH 3 0
BBX 2 3 1 5
BITMAP
40
40
80
ENDCHAR
STARTCHAR parenleft
ENCODING 40
SWIDTH 384 0
DWIDTH 4 0
BBX 3 10 0 -2
BITMAP
20
40
40
80
80
80
80
40
40
20
ENDCHAR
STARTCHAR parenright
ENCODING 41
SWIDTH 384 0
DWIDTH 4 0
BBX 3 10 1 -2
BITMAP
80
40
40
20
20
20
20
40
40
80
ENDCHAR
STARTCHAR asterisk
ENCODING 42
SWIDTH 384 0
DWIDTH 4 0
BBX 3 3 0 5
BITMAP
a0
40
a0
ENDCHAR
STARTCHAR plus
ENCODING 43
SWIDTH 576 0
DWIDTH 6 0
BBX 5 5 0 1
BITMAP
20
20
f8
20
20
ENDCHAR
STARTCHAR comma
ENCODING 44
SWIDTH 288 0
DWIDTH 3 0
BBX 2 3 0 -2
BITMAP
40
40
80
ENDCHAR
STARTCHAR minus
ENCODING 45
SWIDTH 672 0
DWIDTH 7 0
BBX 5 1 1 3
BITMAP
f8
ENDCHAR
STARTCHAR period
ENCODING 46
SWIDTH 288 0
DWIDTH 3 0
BBX 1 1 1 0
BITMAP
80
ENDCHAR
STARTCHAR slash
ENCODING 47
SWIDTH 288 0
DWIDTH 3 0
BBX 3 8 0 0
BITMAP
20
20
40
40
40
40
80
80
ENDCHAR
STARTCHAR 0
ENCODING 48
SWIDTH 576 0
DWIDTH 6 0
BBX 5 8 0 0
BITMAP
70
88
88
88
88
88
88
70
ENDCHAR
STARTCHAR 1
ENCODING 49
SWIDTH 576 0
DWIDTH 6 0
BBX 2 8 1 0
BITMAP
40
c0
40
40
40
40
40
40
ENDCHAR
STARTCHAR 2
ENCODING 50
SWIDTH 576 0
DWIDTH 6 0
BBX 5 8 0 0
BITMAP
70
88
08
08
30
40
80
f8
ENDCHAR
STARTCHAR 3
ENCODING 51
SWIDTH 576 0
DWIDTH 6 0
BBX 5 8 0 0
BITMAP
70
88
08
30
08
08
88
70
ENDCHAR
STARTCHAR 4
ENCODING 52
SWIDTH 576 0
DWIDTH 6 0
BBX 5 8 0 0
BITMAP
10
30
50
50
90
f8
10
10
ENDCHAR
STARTCHAR 5
ENCODING 53
SWIDTH 576 0
DWIDTH 6 0
BBX 5 8 0 0
BITMAP
f8
80
80
f0
08
08
88
70
ENDCHAR
STARTCHAR 6
ENCODING 54
SWIDTH 576 0
DWIDTH 6 0
BBX 5 8 0 0
BITMAP
70
88
80
b0
c8
88
88
70
ENDCHAR
STARTCHAR 7
ENCODING 55
SWIDTH 576 0
DWIDTH 6 0
BBX 5 8 0 0
BITMAP
f8
08
10
10
20
20
40
40
ENDCHAR
STARTCHAR 8
ENCODING 56
SWIDTH 576 0
DWIDTH 6 0
BBX 5 8 0 0
BITMAP
70
88
88
70
88
88
88
70
ENDCHAR
STARTCHAR 9
ENCODING 57
SWIDTH 576 0
DWIDTH 6 0
BBX 5 8 0 0
BITMAP
70
88
88
98
68
08
88
70
ENDCHAR
STARTCHAR colon
ENCODING 58
SWIDTH 288 0
DWIDTH 3 0
BBX 1 6 1 0
BITMAP
80
00
00
00
00
80
ENDCHAR
STARTCHAR semicolon
ENCODING 59
SWIDTH 288 0
DWIDTH 3 0
BBX 2 8 0 -2
BITMAP
40
00
00
00
00
40
40
80
ENDCHAR
STARTCHAR less
ENCODING 60
SWIDTH 576 0
DWIDTH 6 0
BBX 3 5 1 1
BITMAP
20
40
80
40
20
ENDCHAR
STARTCHAR equal
ENCODING 61
SWIDTH 480 0
DWIDTH 5 0
BBX 4 3 0 2
BITMAP
f0
00
f0
ENDCHAR
STARTCHAR greater
ENCODING 62
SWIDTH 576 0
DWIDTH 6 0
BBX 3 5 1 1
BITMAP
80
40
20
40
80
ENDCHAR
STARTCHAR question
ENCODING 63
SWIDTH 576 0
DWIDTH 6 0
BBX 4 8 1 0
BITMAP
60
90
10
20
40
40
00
40
ENDCHAR
STARTCHAR at
ENCODING 64
SWIDTH 1056 0
DWIDTH 11 0
BBX 10 10 0 -2
BITMAP
1f00
2080
4d40
9240
a240
a480
a480
9b00
4000
3e00
ENDCHAR
STARTCHAR A
ENCODING 65
SWIDTH 672 0
DWIDTH 7 0
BBX 7 8 0 0
BITMAP
10
10
28
28
44
7c
82
82
ENDCHAR
STARTCHAR B
ENCODING 66
SWIDTH 672 0
DWIDTH 7 0
BBX 5 8 1 0
BITMAP
f0
88
88
f0
88
88
88
f0
ENDCHAR
STARTCHAR C
ENCODING 67
SWIDTH 768 0
DWIDTH 8 0
BBX 6 8 1 0
BITMAP
78
84
80
80
80
80
84
78
ENDCHAR
STARTCHAR D
ENCODING 68
SWIDTH 768 0
DWIDTH 8 0
BBX 6 8 1 0
BITMAP
f0
88
84
84
84
84
88
f0
ENDCHAR
STARTCHAR E
ENCODING 69
SWIDTH 672 0
DWIDTH 7 0
BBX 5 8 1 0
BITMAP
f8
80
80
f8
80
80
80
f8
ENDCHAR
STARTCHAR F
ENCODING 70
SWIDTH 576 0
DWIDTH 6 0
BBX 5 8 1 0
BITMAP
f8
80
80
f0
80
80
80
80
ENDCHAR
STARTCHAR G
ENCODING 71
SWIDTH 768 0
DWIDTH 8 0
BBX 6 8 1 0
BITMAP
78
84
80
80
8c
84
8c
74
ENDCHAR
STARTCHAR H
ENCODING 72
SWIDTH 768 0
DWIDTH 8 0
BBX 6 8 1 0
BITMAP
84
84
84
fc
84
84
84
84
ENDCHAR
STARTCHAR I
ENCODING 73
SWIDTH 288 0
DWIDTH 3 0
BBX 1 8 1 0
BITMAP
80
80
80
80
80
80
80
80
ENDCHAR
STARTCHAR J
ENCODING 74
SWIDTH 480 0
DWIDTH 5 0
BBX 4 8 0 0
BITMAP
10
10
10
10
10
10
90
60
ENDCHAR
STARTCHAR K
ENCODING 75
SWIDTH 672 0
DWIDTH 7 0
BBX 5 8 1 0
BITMAP
88
90
a0
e0
90
90
88
88
ENDCHAR
STARTCHAR L
ENCODING 76
SWIDTH 576 0
DWIDTH 6 0
BBX 4 8 1 0
BITMAP
80
80
80
80
80
80
80
f0
ENDCHAR
STARTCHAR M
ENCODING 77
SWIDTH 864 0
DWIDTH 9 0
BBX 7 8 1 0
BITMAP
82
c6
c6
aa
aa
92
92
92
ENDCHAR
STARTCHAR N
ENCODING 78
SWIDTH 768 0
DWIDTH 8 0
BBX 6 8 1 0
BITMAP
c4
c4
a4
a4
94
94
8c
8c
ENDCHAR
STARTCHAR O
ENCODING 79
SWIDTH 768 0
DWIDTH 8 0
BBX 6 8 1 0
BITMAP
78
84
84
84
84
84
84
78
ENDCHAR
STARTCHAR P
ENCODING 80
SWIDTH 672 0
DWIDTH 7 0
BBX 5 8 1 0
BITMAP
f0
88
88
f0
80
80
80
80
ENDCHAR
STARTCHAR Q
ENCODING 81
SWIDTH 768 0
DWIDTH 8 0
BBX 7 9 1 -1
BITMAP
78
84
84
84
84
94
8c
7c
02
ENDCHAR
STARTCHAR R
ENCODING 82
SWIDTH 672 0
DWIDTH 7 0
BBX 5 8 1 0
BITMAP
f0
88
88
f0
88
88
88
88
ENDCHAR
STARTCHAR S
ENCODING 83
SWIDTH 672 0
DWIDTH 7 0
BBX 5 8 1 0
BITMAP
70
88
80
70
08
88
88
70
ENDCHAR
STARTCHAR T
ENCODING 84
SWIDTH 480 0
DWIDTH 5 0
BBX 5 8 0 0
BITMAP
f8
20
20
20
20
20
20
20
ENDCHAR
STARTCHAR U
ENCODING 85
SWIDTH 768 0
DWIDTH 8 0
BBX 6 8 1 0
BITMAP
84
84
84
84
84
84
84
78
ENDCHAR
STARTCHAR V
ENCODING 86
SWIDTH 672 0
DWIDTH 7 0
BBX 7 8 0 0
BITMAP
82
82
44
44
44
28
28
10
ENDCHAR
STARTCHAR W
ENCODING 87
SWIDTH 864 0
DWIDTH 9 0
BBX 9 8 0 0
BITMAP
8880
8880
4900
4900
5500
2200
2200
2200
ENDCHAR
STARTCHAR X
ENCODING 88
SWIDTH 672 0
DWIDTH 7 0
BBX 5 8 1 0
BITMAP
88
88
50
20
50
50
88
88
ENDCHAR
STARTCHAR Y
ENCODING 89
SWIDTH 672 0
DWIDTH 7 0
BBX 7 8 0 0
BITMAP
82
44
44
28
28
10
10
10
ENDCHAR
STARTCHAR Z
ENCODING 90
SWIDTH 672 0
DWIDTH 7 0
BBX 5 8 1 0
BITMAP
f8
08
10
20
20
40
80
f8
ENDCHAR
STARTCHAR bracketleft
ENCODING 91
SWIDTH 288 0
DWIDTH 3 0
BBX 2 10 1 -2
BITMAP
c0
80
80
80
80
80
80
80
80
c0
ENDCHAR
STARTCHAR backslash
ENCODING 92
SWIDTH 288 0
DWIDTH 3 0
BBX 3 8 0 0
BITMAP
80
80
40
40
40
40
20
20
ENDCHAR
STARTCHAR bracketright
ENCODING 93
SWIDTH 288 0
DWIDTH 3 0
BBX 2 10 0 -2
BITMAP
c0
40
40
40
40
40
40
40
40
c0
ENDCHAR
STARTCHAR asciicircum
ENCODING 94
SWIDTH 576 0
DWIDTH 6 0
BBX 5 5 0 3
BITMAP
20
20
50
50
88
ENDCHAR
STARTCHAR underscore
ENCODING 95
SWIDTH 576 0
DWIDTH 6 0
BBX 6 1 0 -2
BITMAP
fc
ENDCHAR
STARTCHAR grave
ENCODING 96
SWIDTH 288 0
DWIDTH 3 0
BBX 2 3 0 5
BITMAP
40
80
80
ENDCHAR
STARTCHAR a
ENCODING 97
SWIDTH 480 0
DWIDTH 5 0
BBX 5 6 0 0
BITMAP
e0
10
70
90
90
68
ENDCHAR
STARTCHAR b
ENCODING 98
SWIDTH 576 0
DWIDTH 6 0
BBX 5 8 0 0
BITMAP
80
80
b0
c8
88
88
c8
b0
ENDCHAR
STARTCHAR c
ENCODING 99
SWIDTH 480 0
DWIDTH 5 0
BBX 4 6 0 0
BITMAP
60
90
80
80
90
60
ENDCHAR
STARTCHAR d
ENCODING 100
SWIDTH 576 0
DWIDTH 6 0
BBX 5 8 0 0
BITMAP
08
08
68
98
88
88
98
68
ENDCHAR
STARTCHAR e
ENCODING 101
SWIDTH 480 0
DWIDTH 5 0
BBX 4 6 0 0
BITMAP
60
90
f0
80
90
60
ENDCHAR
STARTCHAR f
ENCODING 102
SWIDTH 384 0
DWIDTH 4 0
BBX 4 8 0 0
BITMAP
30
40
e0
40
40
40
40
40
ENDCHAR
STARTCHAR g
ENCODING 103
SWIDTH 576 0
DWIDTH 6 0
BBX 5 8 0 -2
BITMAP
68
98
88
88
98
68
08
70
ENDCHAR
STARTCHAR h
ENCODING 104
SWIDTH 576 0
DWIDTH 6 0
BBX 5 8 0 0
BITMAP
80
80
b0
c8
88
88
88
88
ENDCHAR
STARTCHAR i
ENCODING 105
SWIDTH 192 0
DWIDTH 2 0
BBX 1 8 0 0
BITMAP
80
00
80
80
80
80
80
80
ENDCHAR
STARTCHAR j
ENCODING 106
SWIDTH 192 0
DWIDTH 2 0
BBX 1 9 0 -1
BITMAP
80
00
80
80
80
80
80
80
80
ENDCHAR
STARTCHAR k
ENCODING 107
SWIDTH 480 0
DWIDTH 5 0
BBX 4 8 0 0
BITMAP
80
80
90
a0
c0
a0
90
90
ENDCHAR
STARTCHAR l
ENCODING 108
SWIDTH 192 0
DWIDTH 2 0
BBX 1 8 0 0
BITMAP
80
80
80
80
80
80
80
80
ENDCHAR
STARTCHAR m
ENCODING 109
SWIDTH 768 0
DWIDTH 8 0
BBX 7 6 0 0
BITMAP
ec
92
92
92
92
92
ENDCHAR
STARTCHAR n
ENCODING 110
SWIDTH 576 0
DWIDTH 6 0
BBX 5 6 0 0
BITMAP
b0
c8
88
88
88
88
ENDCHAR
STARTCHAR o
ENCODING 111
SWIDTH 576 0
DWIDTH 6 0
BBX 5 6 0 0
BITMAP
70
88
88
88
88
70
ENDCHAR
STARTCHAR p
ENCODING 112
SWIDTH 576 0
DWIDTH 6 0
BBX 5 8 0 -2
BITMAP
b0
c8
88
88
c8
b0
80
80
ENDCHAR
STARTCHAR q
ENCODING 113
SWIDTH 576 0
DWIDTH 6 0
BBX 5 8 0 -2
BITMAP
68
98
88
88
98
68
08
08
ENDCHAR
STARTCHAR r
ENCODING 114
SWIDTH 384 0
DWIDTH 4 0
BBX 3 6 0 0
BITMAP
a0
c0
80
80
80
80
ENDCHAR
STARTCHAR s
ENCODING 115
SWIDTH 480 0
DWIDTH 5 0
BBX 4 6 0 0
BITMAP
60
90
60
10
90
60
ENDCHAR
STARTCHAR t
ENCODING 116
SWIDTH 384 0
DWIDTH 4 0
BBX 3 8 0 0
BITMAP
40
40
e0
40
40
40
40
60
ENDCHAR
STARTCHAR u
ENCODING 117
SWIDTH 480 0
DWIDTH 5 0
BBX 4 6 0 0
BITMAP
90
90
90
90
90
70
ENDCHAR
STARTCHAR v
ENCODING 118
SWIDTH 576 0
DWIDTH 6 0
BBX 5 6 0 0
BITMAP
88
88
50
50
20
20
ENDCHAR
STARTCHAR w
ENCODING 119
SWIDTH 768 0
DWIDTH 8 0
BBX 7 6 0 0
BITMAP
92
92
54
54
28
28
ENDCHAR
STARTCHAR x
ENCODING 120
SWIDTH 576 0
DWIDTH 6 0
BBX 5 6 0 0
BITMAP
88
50
20
50
88
88
ENDCHAR
STARTCHAR y
ENCODING 121
SWIDTH 480 0
DWIDTH 5 0
BBX 4 8 0 -2
BITMAP
90
90
a0
a0
60
40
40
80
ENDCHAR
STARTCHAR z
ENCODING 122
SWIDTH 480 0
DWIDTH 5 0
BBX 4 6 0 0
BITMAP
f0
10
20
40
80
f0
ENDCHAR
STARTCHAR braceleft
ENCODING 123
SWIDTH 288 0
DWIDTH 3 0
BBX 3 10 0 -2
BITMAP
20
40
40
40
80
40
40
40
40
20
ENDCHAR
STARTCHAR bar
ENCODING 124
SWIDTH 288 0
DWIDTH 3 0
BBX 1 10 1 -2
BITMAP
80
80
80
80
80
80
80
80
80
80
ENDCHAR
STARTCHAR braceright
ENCODING 125
SWIDTH 288 0
DWIDTH 3 0
BBX 3 10 0 -2
BITMAP
80
40
40
40
20
40
40
40
40
80
ENDCHAR
STARTCHAR asciitilde
ENCODING 126
SWIDTH 672 0
DWIDTH 7 0
BBX 6 2 0 3
BITMAP
64
98
ENDCHAR
STARTCHAR nobreakspace
ENCODING 160
SWIDTH 288 0
DWIDTH 3 0
BBX 1 1 0 0
BITMAP
00
ENDCHAR
STARTCHAR exclamdown
ENCODING 161
SWIDTH 288 0
DWIDTH 3 0
BBX 1 8 1 -2
BITMAP
00
00
00
00
00
00
00
00
ENDCHAR
STARTCHAR cent
ENCODING 162
SWIDTH 576 0
DWIDTH 6 0
BBX 5 8 0 -1
BITMAP
00
00
00
00
00
00
00
00
ENDCHAR
STARTCHAR sterling
ENCODING 163
SWIDTH 576 0
DWIDTH 6 0
BBX 5 8 0 0
BITMAP
00
00
00
00
00
00
00
00
ENDCHAR
STARTCHAR currency
ENCODING 164
SWIDTH 480 0
DWIDTH 5 0
BBX 4 6 0 1
BITMAP
00
00
00
00
00
00
ENDCHAR
STARTCHAR yen
ENCODING 165
SWIDTH 576 0
DWIDTH 6 0
BBX 5 8 0 0
BITMAP
00
00
00
80
00
80
80
80
ENDCHAR
STARTCHAR brokenbar
ENCODING 166
SWIDTH 288 0
DWIDTH 3 0
BBX 1 10 1 -2
BITMAP
80
80
80
00
00
80
80
80
80
00
ENDCHAR
STARTCHAR section
ENCODING 167
SWIDTH 576 0
DWIDTH 6 0
BBX 5 10 0 -2
BITMAP
40
30
48
40
e0
40
40
48
b0
90
ENDCHAR
STARTCHAR diaeresis
ENCODING 168
SWIDTH 288 0
DWIDTH 3 0
BBX 3 1 0 7
BITMAP
60
ENDCHAR
STARTCHAR copyright
ENCODING 169
SWIDTH 864 0
DWIDTH 9 0
BBX 7 7 1 0
BITMAP
90
90
60
90
88
88
50
ENDCHAR
STARTCHAR ordfeminine
ENCODING 170
SWIDTH 384 0
DWIDTH 4 0
BBX 3 5 0 3
BITMAP
40
e0
20
e0
20
ENDCHAR
STARTCHAR guillemotleft
ENCODING 171
SWIDTH 576 0
DWIDTH 6 0
BBX 5 5 0 0
BITMAP
80
80
80
80
00
ENDCHAR
STARTCHAR notsign
ENCODING 172
SWIDTH 672 0
DWIDTH 7 0
BBX 5 3 1 2
BITMAP
00
80
80
ENDCHAR
STARTCHAR hyphen
ENCODING 173
SWIDTH 384 0
DWIDTH 4 0
BBX 3 1 0 3
BITMAP
80
ENDCHAR
STARTCHAR registered
ENCODING 174
SWIDTH 864 0
DWIDTH 9 0
BBX 7 7 1 0
BITMAP
80
70
88
c0
70
98
c8
ENDCHAR
STARTCHAR macron
ENCODING 175
SWIDTH 288 0
DWIDTH 3 0
BBX 3 1 0 7
BITMAP
60
ENDCHAR
STARTCHAR degree
ENCODING 176
SWIDTH 384 0
DWIDTH 4 0
BBX 4 4 0 3
BITMAP
10
80
70
a0
ENDCHAR
STARTCHAR plusminus
ENCODING 177
SWIDTH 576 0
DWIDTH 6 0
BBX 5 7 0 0
BITMAP
38
40
98
a0
98
40
38
ENDCHAR
STARTCHAR twosuperior
ENCODING 178
SWIDTH 288 0
DWIDTH 3 0
BBX 3 4 0 3
BITMAP
e0
20
a0
00
ENDCHAR
STARTCHAR threesuperior
ENCODING 179
SWIDTH 288 0
DWIDTH 3 0
BBX 3 4 0 3
BITMAP
e0
20
40
a0
ENDCHAR
STARTCHAR acute
ENCODING 180
SWIDTH 288 0
DWIDTH 3 0
BBX 2 2 0 6
BITMAP
40
00
ENDCHAR
STARTCHAR mu
ENCODING 181
SWIDTH 480 0
DWIDTH 5 0
BBX 4 8 0 -2
BITMAP
f0
00
00
e0
30
40
b0
b0
ENDCHAR
STARTCHAR paragraph
ENCODING 182
SWIDTH 576 0
DWIDTH 6 0
BBX 6 10 0 -2
BITMAP
a8
44
38
e0
60
90
90
60
20
20
ENDCHAR
STARTCHAR periodcentered
ENCODING 183
SWIDTH 288 0
DWIDTH 3 0
BBX 2 1 0 3
BITMAP
c0
ENDCHAR
STARTCHAR cedilla
ENCODING 184
SWIDTH 288 0
DWIDTH 3 0
BBX 2 2 0 -2
BITMAP
00
00
ENDCHAR
STARTCHAR onesuperior
ENCODING 185
SWIDTH 288 0
DWIDTH 3 0
BBX 2 4 0 3
BITMAP
00
c0
40
80
ENDCHAR
STARTCHAR masculine
ENCODING 186
SWIDTH 384 0
DWIDTH 4 0
BBX 3 5 0 3
BITMAP
40
e0
e0
40
20
ENDCHAR
STARTCHAR guillemotright
ENCODING 187
SWIDTH 576 0
DWIDTH 6 0
BBX 5 5 0 0
BITMAP
c0
40
80
90
90
ENDCHAR
STARTCHAR onequarter
ENCODING 188
SWIDTH 864 0
DWIDTH 9 0
BBX 9 8 0 0
BITMAP
9080
9080
8080
7c80
e880
6800
2800
2800
ENDCHAR
STARTCHAR onehalf
ENCODING 189
SWIDTH 864 0
DWIDTH 9 0
BBX 8 8 0 0
BITMAP
c0
40
c0
40
c0
40
40
e0
ENDCHAR
STARTCHAR threequarters
ENCODING 190
SWIDTH 864 0
DWIDTH 9 0
BBX 9 8 0 0
BITMAP
a080
0080
a000
2800
a000
0080
0000
0000
ENDCHAR
STARTCHAR questiondown
ENCODING 191
SWIDTH 576 0
DWIDTH 6 0
BBX 4 8 1 -2
BITMAP
00
00
00
10
00
10
80
20
ENDCHAR
STARTCHAR Agrave
ENCODING 192
SWIDTH 672 0
DWIDTH 7 0
BBX 7 11 0 0
BITMAP
00
42
c4
44
48
0a
14
12
26
e2
00
ENDCHAR
STARTCHAR Aacute
ENCODING 193
SWIDTH 672 0
DWIDTH 7 0
BBX 7 11 0 0
BITMAP
44
00
24
00
c8
00
08
00
12
00
16
ENDCHAR
STARTCHAR Acircumflex
ENCODING 194
SWIDTH 672 0
DWIDTH 7 0
BBX 7 11 0 0
BITMAP
80
20
00
20
00
20
20
40
80
90
60
ENDCHAR
STARTCHAR Atilde
ENCODING 195
SWIDTH 672 0
DWIDTH 7 0
BBX 7 11 0 0
BITMAP
20
10
00
10
10
28
28
44
7c
82
82
ENDCHAR
STARTCHAR Adiaeresis
ENCODING 196
SWIDTH 672 0
DWIDTH 7 0
BBX 7 10 0 0
BITMAP
08
10
00
10
10
28
28
44
7c
82
ENDCHAR
STARTCHAR Aring
ENCODING 197
SWIDTH 672 0
DWIDTH 7 0
BBX 7 11 0 0
BITMAP
82
10
28
00
10
10
28
28
44
7c
82
ENDCHAR
STARTCHAR AE
ENCODING 198
SWIDTH 960 0
DWIDTH 10 0
BBX 9 8 0 0
BITMAP
8200
2800
1000
2800
4400
8280
2800
1000
ENDCHAR
STARTCHAR Ccedilla
ENCODING 199
SWIDTH 768 0
DWIDTH 8 0
BBX 6 10 1 -2
BITMAP
28
28
44
7c
80
80
10
28
10
10
ENDCHAR
STARTCHAR Egrave
ENCODING 200
SWIDTH 672 0
DWIDTH 7 0
BBX 5 11 1 0
BITMAP
10
28
28
40
78
80
80
18
80
18
00
ENDCHAR
STARTCHAR Eacute
ENCODING 201
SWIDTH 672 0
DWIDTH 7 0
BBX 5 11 1 0
BITMAP
28
00
28
80
48
00
78
00
88
00
88
ENDCHAR
STARTCHAR Ecircumflex
ENCODING 202
SWIDTH 672 0
DWIDTH 7 0
BBX 5 11 1 0
BITMAP
80
78
80
80
80
80
80
80
78
10
30
ENDCHAR
STARTCHAR Ediaeresis
ENCODING 203
SWIDTH 672 0
DWIDTH 7 0
BBX 5 10 1 0
BITMAP
40
20
00
f8
80
80
f8
80
80
80
ENDCHAR
STARTCHAR Igrave
ENCODING 204
SWIDTH 288 0
DWIDTH 3 0
BBX 2 11 0 0
BITMAP
c0
00
00
00
c0
80
80
c0
80
80
80
ENDCHAR
STARTCHAR Iacute
ENCODING 205
SWIDTH 288 0
DWIDTH 3 0
BBX 2 11 1 0
BITMAP
c0
00
40
00
c0
80
80
80
c0
80
80
ENDCHAR
STARTCHAR Icircumflex
ENCODING 206
SWIDTH 288 0
DWIDTH 3 0
BBX 3 11 0 0
BITMAP
e0
40
00
e0
80
80
e0
80
80
80
e0
ENDCHAR
STARTCHAR Idiaeresis
ENCODING 207
SWIDTH 288 0
DWIDTH 3 0
BBX 3 10 0 0
BITMAP
80
40
00
40
40
40
40
40
40
40
ENDCHAR
STARTCHAR ETH
ENCODING 208
SWIDTH 768 0
DWIDTH 8 0
BBX 7 8 0 0
BITMAP
40
40
80
00
80
80
80
80
ENDCHAR
STARTCHAR Ntilde
ENCODING 209
SWIDTH 768 0
DWIDTH 8 0
BBX 6 11 1 0
BITMAP
80
80
80
80
40
a0
00
40
40
40
40
ENDCHAR
STARTCHAR Ograve
ENCODING 210
SWIDTH 768 0
DWIDTH 8 0
BBX 6 11 1 0
BITMAP
40
40
40
40
a0
00
40
40
40
40
40
ENDCHAR
STARTCHAR Oacute
ENCODING 211
SWIDTH 768 0
DWIDTH 8 0
BBX 6 11 1 0
BITMAP
40
40
40
78
44
40
f0
40
40
44
78
ENDCHAR
STARTCHAR Ocircumflex
ENCODING 212
SWIDTH 768 0
DWIDTH 8 0
BBX 6 11 1 0
BITMAP
28
50
00
c4
c4
a4
a4
94
94
8c
8c
ENDCHAR
STARTCHAR Otilde
ENCODING 213
SWIDTH 768 0
DWIDTH 8 0
BBX 6 11 1 0
BITMAP
20
10
00
78
84
84
84
84
84
84
78
ENDCHAR
STARTCHAR Odiaeresis
ENCODING 214
SWIDTH 768 0
DWIDTH 8 0
BBX 6 10 1 0
BITMAP
08
10
00
78
84
84
84
84
84
84
ENDCHAR
STARTCHAR multiply
ENCODING 215
SWIDTH 576 0
DWIDTH 6 0
BBX 5 5 0 1
BITMAP
78
10
28
00
78
ENDCHAR
STARTCHAR Ooblique
ENCODING 216
SWIDTH 768 0
DWIDTH 8 0
BBX 6 10 1 -1
BITMAP
84
84
84
84
84
84
78
28
50
00
ENDCHAR
STARTCHAR Ugrave
ENCODING 217
SWIDTH 768 0
DWIDTH 8 0
BBX 6 11 1 0
BITMAP
78
84
84
84
84
84
84
78
48
00
78
ENDCHAR
STARTCHAR Uacute
ENCODING 218
SWIDTH 768 0
DWIDTH 8 0
BBX 6 11 1 0
BITMAP
84
84
84
84
84
84
78
88
50
20
50
ENDCHAR
STARTCHAR Ucircumflex
ENCODING 219
SWIDTH 768 0
DWIDTH 8 0
BBX 6 11 1 0
BITMAP
88
04
78
8c
94
94
a4
a4
c4
78
80
ENDCHAR
STARTCHAR Udiaeresis
ENCODING 220
SWIDTH 768 0
DWIDTH 8 0
BBX 6 10 1 0
BITMAP
20
10
00
84
84
84
84
84
84
84
ENDCHAR
STARTCHAR Yacute
ENCODING 221
SWIDTH 672 0
DWIDTH 7 0
BBX 7 11 0 0
BITMAP
78
10
20
00
84
84
84
84
84
84
84
ENDCHAR
STARTCHAR THORN
ENCODING 222
SWIDTH 672 0
DWIDTH 7 0
BBX 5 8 1 0
BITMAP
78
10
28
00
80
80
80
80
ENDCHAR
STARTCHAR ssharp
ENCODING 223
SWIDTH 480 0
DWIDTH 5 0
BBX 4 8 0 0
BITMAP
80
80
80
70
40
00
80
80
ENDCHAR
STARTCHAR agrave
ENCODING 224
SWIDTH 480 0
DWIDTH 5 0
BBX 5 9 0 0
BITMAP
80
80
80
80
80
78
08
10
00
ENDCHAR
STARTCHAR aacute
ENCODING 225
SWIDTH 480 0
DWIDTH 5 0
BBX 5 9 0 0
BITMAP
80
40
40
28
28
10
10
10
80
ENDCHAR
STARTCHAR acircumflex
ENCODING 226
SWIDTH 480 0
DWIDTH 5 0
BBX 5 9 0 0
BITMAP
80
f0
88
88
f0
80
80
60
90
ENDCHAR
STARTCHAR atilde
ENCODING 227
SWIDTH 480 0
DWIDTH 5 0
BBX 5 9 0 0
BITMAP
90
a0
90
90
90
a0
40
20
00
ENDCHAR
STARTCHAR adiaeresis
ENCODING 228
SWIDTH 480 0
DWIDTH 5 0
BBX 5 8 0 0
BITMAP
e0
10
70
90
90
68
10
20
ENDCHAR
STARTCHAR aring
ENCODING 229
SWIDTH 480 0
DWIDTH 5 0
BBX 5 9 0 0
BITMAP
00
e0
10
70
90
90
68
20
50
ENDCHAR
STARTCHAR ae
ENCODING 230
SWIDTH 768 0
DWIDTH 8 0
BBX 7 6 0 0
BITMAP
00
e0
10
70
90
90
ENDCHAR
STARTCHAR ccedilla
ENCODING 231
SWIDTH 480 0
DWIDTH 5 0
BBX 4 8 0 -2
BITMAP
60
50
a0
00
e0
10
70
90
ENDCHAR
STARTCHAR egrave
ENCODING 232
SWIDTH 480 0
DWIDTH 5 0
BBX 4 9 0 0
BITMAP
90
60
50
00
e0
10
70
90
90
ENDCHAR
STARTCHAR eacute
ENCODING 233
SWIDTH 480 0
DWIDTH 5 0
BBX 4 9 0 0
BITMAP
60
20
50
20
e0
10
70
90
90
ENDCHAR
STARTCHAR ecircumflex
ENCODING 234
SWIDTH 480 0
DWIDTH 5 0
BBX 4 9 0 0
BITMAP
60
e0
10
70
90
90
60
60
90
ENDCHAR
STARTCHAR ediaeresis
ENCODING 235
SWIDTH 480 0
DWIDTH 5 0
BBX 4 8 0 0
BITMAP
80
80
90
60
20
60
40
20
ENDCHAR
STARTCHAR igrave
ENCODING 236
SWIDTH 192 0
DWIDTH 2 0
BBX 2 9 -1 0
BITMAP
00
40
80
c0
80
80
40
00
40
ENDCHAR
STARTCHAR iacute
ENCODING 237
SWIDTH 192 0
DWIDTH 2 0
BBX 2 9 0 0
BITMAP
00
40
80
c0
80
80
40
00
40
ENDCHAR
STARTCHAR icircumflex
ENCODING 238
SWIDTH 192 0
DWIDTH 2 0
BBX 3 9 -1 0
BITMAP
00
60
80
e0
80
80
60
40
00
ENDCHAR
STARTCHAR idiaeresis
ENCODING 239
SWIDTH 192 0
DWIDTH 2 0
BBX 3 8 0 0
BITMAP
60
80
e0
80
80
60
80
40
ENDCHAR
STARTCHAR eth
ENCODING 240
SWIDTH 576 0
DWIDTH 6 0
BBX 5 9 0 0
BITMAP
00
40
40
40
40
40
40
40
80
ENDCHAR
STARTCHAR ntilde
ENCODING 241
SWIDTH 480 0
DWIDTH 5 0
BBX 4 9 0 0
BITMAP
00
80
80
80
80
80
80
40
a0
ENDCHAR
STARTCHAR ograve
ENCODING 242
SWIDTH 576 0
DWIDTH 6 0
BBX 5 9 0 0
BITMAP
00
40
40
40
40
40
40
a0
00
ENDCHAR
STARTCHAR oacute
ENCODING 243
SWIDTH 576 0
DWIDTH 6 0
BBX 5 9 0 0
BITMAP
40
40
40
40
40
40
50
60
90
ENDCHAR
STARTCHAR ocircumflex
ENCODING 244
SWIDTH 576 0
DWIDTH 6 0
BBX 5 9 0 0
BITMAP
78
88
88
88
88
70
50
a0
00
ENDCHAR
STARTCHAR otilde
ENCODING 245
SWIDTH 576 0
DWIDTH 6 0
BBX 5 9 0 0
BITMAP
e0
90
90
90
90
90
40
20
00
ENDCHAR
STARTCHAR odiaeresis
ENCODING 246
SWIDTH 576 0
DWIDTH 6 0
BBX 5 8 0 0
BITMAP
70
88
88
88
88
70
10
20
ENDCHAR
STARTCHAR division
ENCODING 247
SWIDTH 576 0
DWIDTH 6 0
BBX 5 5 0 1
BITMAP
00
70
88
88
88
ENDCHAR
STARTCHAR oslash
ENCODING 248
SWIDTH 576 0
DWIDTH 6 0
BBX 6 6 0 0
BITMAP
88
70
20
50
00
70
ENDCHAR
STARTCHAR ugrave
ENCODING 249
SWIDTH 480 0
DWIDTH 5 0
BBX 4 9 0 0
BITMAP
80
80
80
80
70
20
50
00
70
ENDCHAR
STARTCHAR uacute
ENCODING 250
SWIDTH 480 0
DWIDTH 5 0
BBX 4 9 0 0
BITMAP
80
80
80
80
70
50
00
70
80
ENDCHAR
STARTCHAR ucircumflex
ENCODING 251
SWIDTH 480 0
DWIDTH 5 0
BBX 4 9 0 0
BITMAP
80
80
80
70
20
00
f0
00
20
ENDCHAR
STARTCHAR udiaeresis
ENCODING 252
SWIDTH 480 0
DWIDTH 5 0
BBX 4 8 0 0
BITMAP
70
90
a0
c0
80
70
40
20
ENDCHAR
STARTCHAR yacute
ENCODING 253
SWIDTH 480 0
DWIDTH 5 0
BBX 4 11 0 -2
BITMAP
00
90
90
90
90
90
70
20
40
00
90
ENDCHAR
STARTCHAR thorn
ENCODING 254
SWIDTH 576 0
DWIDTH 6 0
BBX 5 10 0 -2
BITMAP
90
90
90
90
70
20
50
00
90
90
ENDCHAR
STARTCHAR ydiaeresis
ENCODING 255
SWIDTH 480 0
DWIDTH 5 0
BBX 4 10 0 -2
BITMAP
90
90
90
70
50
00
90
90
90
90
ENDCHAR
ENDFONT
